<svg width="1280" height="1338" viewBox="0 0 1280 1338" fill="none" xmlns="http://www.w3.org/2000/svg">
<rect y="0.940308" width="1280.77" height="1336.42" fill="#FAFBFF"/>
<mask id="mask0" mask-type="alpha" maskUnits="userSpaceOnUse" x="0" y="0" width="1281" height="1338">
<rect y="0.940308" width="1280.77" height="1336.42" fill="white"/>
</mask>
<g mask="url(#mask0)">
<rect y="-0.483032" width="1281" height="1337.85" fill="#FAFBFF"/>
</g>
<path fill-rule="evenodd" clip-rule="evenodd" d="M386.822 0.940308C386.08 1.84035 385.295 2.66723 384.474 3.41517C374.884 10.9093 365.312 18.4509 355.74 25.9921L355.739 25.9933C332.848 44.0281 309.96 62.0616 286.829 79.4428C249.043 107.829 209.708 131.13 168.408 147.328C141.114 157.929 113.287 165.525 85.1739 170.047C57.7276 174.564 30.177 176.098 2.55678 176.927C1.93666 176.927 1.31653 176.984 0.715329 177.039L0.714546 177.039L0.713613 177.039C0.472282 177.061 0.234003 177.083 0 177.101V137.057C3.08217 137.088 6.16328 137.107 9.24407 137.127H9.24584H9.24792C14.9715 137.164 20.6939 137.2 26.4201 137.305C60.2757 137.924 94.0618 136.439 127.709 130.734C177.73 122.118 226.601 103.163 272.776 74.4683C306.692 53.5682 339.304 28.8072 371.664 3.43991C372.478 2.68524 373.254 1.84997 373.986 0.940308H386.822ZM1280.8 28.8815C1279.43 28.8354 1278.07 28.8107 1276.7 28.7861C1273.67 28.7314 1270.63 28.6767 1267.61 28.3865C1260.75 27.7259 1253.9 26.9859 1247.04 26.2456L1247.04 26.2452C1234.76 24.9193 1222.46 23.5925 1210.15 22.7191C1174.91 20.2442 1141.11 29.76 1108.55 48.8659C1081.87 64.507 1057.05 84.9865 1033 107.483C1004.68 133.99 977.649 163.05 950.622 192.11C948.024 194.903 945.426 197.697 942.826 200.488C912.954 232.562 883.02 264.5 851.513 293.295C820.284 321.756 787.75 346.505 752.833 364.683C723.514 379.728 693.142 390.241 662.241 396.039C632.325 401.867 602.235 404.194 572.076 405.864C566.157 406.192 560.238 406.511 554.318 406.829C534.082 407.919 513.841 409.009 493.615 410.455C439.219 414.328 385.413 424.067 332.625 443.866C276.88 464.593 223.997 495.516 173.096 533.53C125.535 569.044 80.2777 609.916 35.8558 652.731C30.556 657.847 25.2735 663.004 19.9911 668.16C14.7072 673.318 9.4234 678.475 4.12216 683.593C2.81973 684.632 1.45119 685.494 0.0347861 686.167V635.135C1.45163 634.428 2.82223 633.546 4.13086 632.499C11.5182 625.357 18.8896 618.18 26.2611 611.003C37.7903 599.779 49.3197 588.554 60.9105 577.458C105.532 534.718 150.954 493.87 198.838 458.814C237.476 430.526 277.367 406.594 318.963 388.478C377.012 363.185 436.601 351.591 497.094 348.658C517.125 347.692 537.167 347.254 557.208 346.817C568.742 346.565 580.276 346.313 591.808 345.96C622.394 345.02 652.919 342.867 683.226 336.358C713.346 330.004 742.857 318.769 771.183 302.873C803.977 284.312 834.563 259.947 864.088 232.686C891.377 207.477 917.589 180.098 943.8 152.72L943.865 152.653L943.889 152.628L943.892 152.624L943.896 152.62L943.9 152.616L943.903 152.613L943.907 152.609L943.911 152.605L943.914 152.601C947.36 149.002 950.806 145.403 954.254 141.809C981.683 113.212 1009.19 84.7885 1038.24 59.5697C1065.02 36.3184 1092.76 15.9627 1122.95 2.99444C1123.81 2.44822 1124.62 1.75869 1125.37 0.940308H1280.77L1280.8 28.8815ZM1275.07 104.925L1275.07 104.924C1270.74 104.551 1266.41 104.177 1262.09 103.696C1248.05 101.942 1233.96 101.367 1219.88 101.976C1189.78 103.708 1161.21 114.35 1133.79 131.674C1106.36 148.998 1080.74 171.594 1056.12 196.021C1026.01 225.909 997.398 258.556 968.773 291.216L968.394 291.649C966.576 293.724 964.757 295.799 962.939 297.875L962.777 298.059L962.777 298.06L962.777 298.06L962.776 298.061L962.776 298.061L962.776 298.061L962.775 298.062L962.775 298.062L962.774 298.062L962.774 298.063L962.774 298.063L962.773 298.063C932.798 332.278 902.827 366.487 871.463 398.142C843.347 426.516 814.239 452.589 783.306 474.331C745.489 500.794 705.403 520.109 664.068 531.784C636.722 539.539 609.119 545.325 581.364 549.121C567.416 551.084 553.481 552.973 539.553 554.861L539.543 554.862L539.515 554.866L539.507 554.867L539.5 554.868L539.492 554.869L539.485 554.87L539.477 554.871L539.47 554.872L539.462 554.874L539.455 554.875L539.447 554.876L539.44 554.877C521.273 557.339 503.116 559.8 484.954 562.423C431.844 570.095 379.178 581.566 327.407 600.61C267.288 622.686 209.708 654.302 154.19 693.789C104.237 729.315 56.5623 770.361 10.0793 814.29C7.79454 816.454 5.46823 818.547 3.14346 820.639L3.13903 820.643L3.13106 820.651L3.12554 820.656L3.1215 820.659L3.11871 820.662L3.11678 820.663C2.08787 821.589 1.05929 822.515 0.0347861 823.446V752.987C1.43276 752.063 2.79696 751.039 4.12216 749.918C9.04404 745.241 13.9506 740.544 18.858 735.847L18.8653 735.84C26.2249 728.795 33.5864 721.748 41.0042 714.763C84.2868 674.237 128.752 636.582 175.235 603.852C250.391 550.928 329.294 515.116 412.346 498.114C447.132 490.987 482.153 486.804 517.209 483.401C528.162 482.322 539.118 481.283 550.074 480.243L550.091 480.242L550.095 480.241C564.256 478.898 578.417 477.555 592.573 476.125C618.26 473.611 643.83 469.108 669.172 462.637C706.168 453.211 742.186 437.218 776.383 415.033C809.082 393.7 839.668 367.219 869.184 338.115C898.103 309.598 925.848 278.845 953.592 248.094C956.041 245.378 958.491 242.663 960.941 239.949C989.336 208.469 1017.76 177.026 1047.71 148.54C1072.93 124.547 1099.09 102.892 1127.38 86.8299C1160.11 68.0931 1195.4 60.1439 1230.59 63.5786C1241.96 64.6451 1253.32 65.9169 1264.67 67.1888C1270.05 67.791 1275.43 68.3932 1280.81 68.9738L1280.8 105.428C1278.89 105.254 1276.98 105.09 1275.07 104.925ZM1275.72 193.275C1277.41 193.147 1279.11 193.02 1280.8 192.902L1280.84 150.372C1279.52 150.219 1278.21 150.049 1276.89 149.878C1274.25 149.537 1271.62 149.196 1268.97 148.998C1251.78 147.523 1234.52 148.593 1217.48 152.191C1193.24 157.586 1170.37 168.933 1148.36 184.067C1119.26 204.064 1092.54 229.345 1066.61 256.568C1037.22 287.384 1009.12 320.53 981.028 353.68L979.655 355.3L977.586 357.74L975.875 359.76C944.477 396.805 913.069 433.861 880.185 468.28C850.461 499.376 819.657 528.023 786.871 552.239C746.372 582.173 703.75 603.642 659.311 618.058C630.038 627.562 600.444 634.479 570.693 640.171C559.204 642.365 547.715 644.519 536.228 646.673C511.753 651.263 487.288 655.851 462.856 660.811C396.44 674.299 331.051 694.321 267.41 725.034C208.795 753.297 152.659 789.492 98.4535 831.873C66.5285 856.832 35.3862 883.66 4.82658 911.861C3.47078 913.136 2.02728 914.248 0.608976 915.341H0.608894L0.608694 915.341L0.608257 915.341L0.597189 915.35C0.409186 915.495 0.22163 915.639 0.0347861 915.784V1014.2C1.59654 1013.43 3.11425 1012.49 4.57438 1011.39C37.8821 981.359 71.9638 953.241 106.82 927.032C198.21 858.175 295.77 807.365 396.806 776.004C441.359 762.177 486.292 751.368 531.22 740.56L531.471 740.5C535.956 739.421 540.441 738.342 544.925 737.26C578.302 729.179 611.584 720.517 644.544 709.38C710.881 686.958 772.983 650.417 830.45 598.012C866.819 564.861 901.153 527.8 934.269 488.462C953.686 465.409 972.962 442.115 992.239 418.82C1005.39 402.927 1018.54 387.034 1031.74 371.216C1060.73 336.506 1090.15 302.699 1121.6 272.58C1143.83 251.297 1166.89 232.117 1191.78 217.7C1215.69 203.817 1240.44 195.266 1266.33 193.917C1269.46 193.748 1272.59 193.512 1275.72 193.275ZM1280.8 315.606C1266.96 321.36 1253.84 329.738 1241.08 339.043C1212.33 359.968 1186.03 386.201 1160.61 414.316C1129.02 449.261 1099.13 487.027 1069.5 525.227C1058.33 539.62 1047.18 554.046 1036.04 568.472L1036.02 568.49L1036.01 568.508L1036 568.526L1035.98 568.544L1035.97 568.562L1035.92 568.624C1011.01 600.868 986.092 633.111 960.95 664.982C926.708 708.61 890.701 749.35 853.113 786.992C793.376 846.476 728.752 892.087 659.815 925.584C618.202 945.779 575.893 962.633 533.489 979.017C482.693 998.593 431.94 1018.27 381.691 1040.57C248.556 1099.63 123.117 1182.47 4.54829 1286.69C3.56959 1287.54 2.52615 1288.25 1.48422 1288.97C0.998512 1289.3 0.513133 1289.64 0.0347861 1289.98V1146.61C0.547643 1146.26 1.0682 1145.92 1.58895 1145.58H1.58903H1.58914H1.58928H1.58944H1.58962H1.58986L1.59017 1145.58L1.59057 1145.58L1.59105 1145.58L1.59167 1145.58L1.59246 1145.58L1.59297 1145.58L1.59337 1145.58L1.59368 1145.58H1.59392C2.73161 1144.84 3.87008 1144.09 4.93094 1143.16C59.3452 1095.46 115.377 1051.95 173.505 1014.17C243.538 968.709 315.884 932.724 390.257 904.734C435.653 887.633 481.521 873.392 527.383 859.153L527.753 859.038L528.109 858.928C531.022 858.023 533.934 857.119 536.846 856.214C574.345 844.57 611.767 832.48 648.666 817.347C698.706 796.83 746.867 769.829 792.446 733.758C832.093 702.389 869.071 665.452 904.631 625.483C941.325 584.218 976.326 540.102 1011.32 495.998L1013.02 493.845L1016.83 489.053L1016.83 489.05L1016.83 489.049C1046.23 451.987 1075.62 414.937 1106.29 380.002C1132.62 349.982 1159.72 321.496 1189.12 297.725C1211.09 279.956 1233.97 265.206 1258.69 256.816C1263.52 255.176 1268.44 254.08 1273.36 252.984C1275.87 252.425 1278.37 251.866 1280.87 251.235L1280.8 315.606ZM181.905 1337.36C185.036 1335.14 188.16 1332.9 191.285 1330.66C197.803 1325.99 204.321 1321.32 210.9 1316.81C286.69 1264.84 364.655 1220.43 444.019 1180.88C469.611 1168.13 495.257 1155.58 520.903 1143.04L520.929 1143.03L520.947 1143.02L520.965 1143.01L520.983 1143L521.001 1142.99L521.019 1142.98L521.037 1142.97L521.055 1142.96L521.074 1142.96L521.092 1142.95L521.11 1142.94L521.128 1142.93L521.146 1142.92L521.164 1142.91C540.061 1133.67 558.958 1124.42 577.833 1115.1C620.959 1093.8 663.668 1070.95 705.367 1044.41C773.635 1000.98 836.859 945.755 895.639 880.084C932.043 839.422 966.89 796.211 1000.64 751.218C1021 724.062 1041.25 696.73 1061.5 669.39L1061.51 669.377C1078.83 646.005 1096.15 622.627 1113.54 599.349C1146.17 555.63 1179.33 512.729 1214.71 473.477C1234.71 451.303 1255.33 430.464 1277.37 412.584C1278.12 411.977 1278.93 411.5 1279.73 411.022C1280.09 410.808 1280.45 410.594 1280.8 410.369V522.146C1277.54 525.825 1274.25 529.474 1270.97 533.123L1270.97 533.127L1270.96 533.132L1270.96 533.136L1270.94 533.154L1270.93 533.172C1263.92 540.955 1256.93 548.734 1250.11 556.794C1216.32 596.874 1184.42 639.912 1153.03 683.717C1134.86 709.07 1116.76 734.539 1098.67 760.007L1098.66 760.015L1098.64 760.044C1084.28 780.257 1069.92 800.471 1055.52 820.626C1016.67 875.011 977.143 928.282 935.687 978.732C883.751 1041.89 828.815 1098.97 769.678 1147.79C723.352 1186.04 675.347 1219.56 626.246 1249.75C595.09 1268.95 563.804 1287.73 532.518 1306.5L532.516 1306.5L532.513 1306.5L532.511 1306.5L532.509 1306.5L532.507 1306.51L532.505 1306.51L532.503 1306.51L532.5 1306.51L532.498 1306.51L532.496 1306.51L532.494 1306.51L532.492 1306.52L532.489 1306.52C517.265 1315.65 502.041 1324.79 486.832 1333.97C485.343 1335 483.892 1336.13 482.484 1337.36H181.905ZM791.254 1326.18C787.365 1329.9 783.475 1333.62 779.592 1337.36H967.438C968.196 1335.94 969.012 1334.59 969.881 1333.31C1014.91 1273.16 1058.46 1210.94 1100.53 1146.65C1133.78 1095.86 1166.83 1044.81 1199.89 993.758L1199.9 993.734L1199.92 993.709C1216.29 968.421 1232.66 943.133 1249.06 917.875C1256.14 906.969 1263.29 896.141 1270.45 885.312C1273.9 880.083 1277.35 874.854 1280.8 869.616V683.729C1280.76 683.751 1280.72 683.769 1280.67 683.786C1280.57 683.828 1280.47 683.868 1280.41 683.964C1272.74 694.743 1265.05 705.478 1257.36 716.213L1257.35 716.222L1257.34 716.232L1257.34 716.241L1257.33 716.251L1257.32 716.26L1257.32 716.27L1257.31 716.279L1257.3 716.289L1257.3 716.298L1257.29 716.308L1257.29 716.311L1257.29 716.314L1257.28 716.317L1257.28 716.32L1257.28 716.323L1257.28 716.327L1257.27 716.33L1257.27 716.333L1257.27 716.336L1257.27 716.339C1239.81 740.698 1222.35 765.059 1205.24 789.938C1181.33 824.686 1157.62 859.691 1133.89 894.701L1133.87 894.741L1133.84 894.781L1133.83 894.798C1117.19 919.35 1100.56 943.904 1083.85 968.375C1039.72 1032.96 994.571 1096.07 947.044 1155.68C905.388 1207.92 862.001 1257.02 816.318 1301.96C808.009 1310.13 799.632 1318.15 791.254 1326.18ZM1055.94 3.10581C1056.65 2.46799 1057.32 1.74341 1057.94 0.940308L1016.1 1.01455C1015.66 1.94268 1015.13 2.77607 1014.52 3.48941C990.264 24.8267 966.814 47.8827 943.364 70.9383C932.638 81.4836 921.913 92.0288 911.11 102.409C886.212 126.317 860.992 149.432 834.407 169.478C801.951 193.979 768.078 213.036 732.031 223.851C710.436 230.205 688.522 234.128 666.494 235.582C636.507 237.735 606.557 236.639 576.576 235.542L576.575 235.542C565.726 235.145 554.873 234.748 544.012 234.505C510.269 233.75 476.57 235.099 443.019 240.568C388.213 249.49 335.678 270.366 285.107 301.549C243.66 327.114 204.082 357.827 165.965 392.215C140.291 415.379 114.854 439.088 89.42 462.795L89.4188 462.796C77.4888 473.916 65.5591 485.035 53.6055 496.098C37.1632 511.359 20.692 526.559 4.19173 541.697C2.8647 542.666 1.47191 543.442 0.0347861 544.011V585.316C1.55914 584.305 3.04537 583.182 4.48741 581.95C16.4582 570.599 28.411 559.206 40.3643 547.812L40.3648 547.812L40.3653 547.811L40.3657 547.811L40.3718 547.805L40.3845 547.793L40.4017 547.777L40.4255 547.754L40.4297 547.75C66.6203 522.786 92.8136 497.82 119.203 473.279C158.842 436.28 199.742 402.437 242.494 373.171C314.858 323.637 390.944 294.273 471.213 288.086C493.65 286.353 516.131 285.772 538.603 285.462C553.659 285.252 568.714 285.358 583.77 285.464C596.169 285.551 608.568 285.638 620.968 285.549C645.428 285.432 669.856 282.988 694.088 278.236C734.425 270.111 773.591 252.875 810.109 227.179C836.396 208.746 861.703 187.608 885.829 163.934C906.517 143.77 927.025 123.252 947.543 102.724C955.532 94.7316 963.522 86.7377 971.525 78.7622C998.815 51.6378 1026.45 25.2805 1055.94 3.10581ZM978.534 0.940308C977.91 1.98136 977.217 2.93446 976.465 3.78639C968.73 11.0425 961.004 18.322 953.278 25.6021C933.491 44.2453 913.701 62.8929 893.743 81.1628C867.053 105.614 839.372 127.616 810.082 145.286C779.177 164.057 746.556 176.489 713.194 182.211C686.139 186.815 658.997 187.458 631.812 186.443C618.65 185.953 605.492 185.204 592.335 184.455L592.333 184.455C566.971 183.012 541.609 181.569 516.209 181.976C460.221 182.867 405.433 194.152 352.201 219.495C316.502 236.497 282.359 258.511 249.199 283.767C211.422 312.537 175.279 345.156 139.24 378.059C100.935 413.045 62.5571 447.854 24.1068 482.486C18.458 487.624 12.6102 492.391 6.73168 497.183L6.73068 497.184C5.65893 498.058 4.58617 498.932 3.5134 499.81C2.39688 500.537 1.23136 501.101 0.0347861 501.493V465.038C1.38042 464.484 2.69448 463.785 3.96562 462.947C8.64433 459.287 13.3336 455.65 18.0235 452.013L18.0299 452.008L18.0373 452.002L18.0392 452.001L18.0406 452L18.0417 451.999C30.327 442.472 42.6159 432.942 54.7273 422.978C85.5327 397.657 115.473 370.353 145.415 343.047L145.429 343.035L145.442 343.023L145.456 343.011L145.459 343.007C151.909 337.125 158.358 331.244 164.817 325.382C201.273 292.293 237.955 259.724 276.315 231.176C312.841 204.015 350.523 181.023 390.24 164.937C435.462 146.623 481.614 138.951 528.515 138.654C555.736 138.522 582.896 140.563 610.061 142.604L610.085 142.606C613.599 142.87 617.114 143.134 620.628 143.393C647.64 145.348 674.634 146.672 701.671 144.494C721.986 142.948 742.174 138.991 762.025 132.665C794.368 122.208 824.893 104.711 854.304 83.0561C886.308 59.4707 916.554 31.7275 946.749 3.86064C947.468 3.0062 948.108 2.02486 948.653 0.940308H978.534ZM6.10588 384.294L6.10469 384.295C4.07881 385.285 2.05305 386.275 0.0347861 387.29V423.733C2.19274 422.936 4.31796 421.969 6.40065 420.837C45.7438 396.064 83.5215 366.947 120.151 335.083C140.057 317.764 159.861 300.239 179.662 282.716L179.663 282.715L179.663 282.715L179.664 282.714L179.664 282.714L179.665 282.713L179.665 282.713C195.488 268.711 211.309 254.71 227.18 240.816C261.479 210.784 296.465 182.558 333.112 158.601C390.779 120.971 451.02 98.4002 514.557 94.6879C539.029 93.3144 563.492 93.995 587.938 95.9254C598.757 96.7787 609.572 97.7125 620.387 98.6463L620.388 98.6465L620.39 98.6466L620.392 98.6468L620.393 98.6469L620.395 98.647L620.397 98.6472C633.572 99.7848 646.748 100.922 659.928 101.915C685.957 103.87 711.968 103.647 737.945 99.6253C766.667 95.1065 794.867 85.3841 821.858 70.6942C854.678 52.9123 885.342 29.0671 915.302 3.41517C915.955 2.70131 916.539 1.86934 917.041 0.940308H888.012C886.906 2.15099 885.744 3.25477 884.534 4.24424L884.058 4.57933L884.055 4.58137L884.055 4.58205L884.054 4.58231L884.054 4.5825C877.335 9.32036 870.623 14.0538 863.827 18.5984C818.188 49.2 770.252 66.0786 719.682 67.5387C698.21 68.1822 676.765 66.7468 655.328 64.7793C645.506 63.8809 635.683 62.9082 625.859 61.9354L625.856 61.9352C615.247 60.8847 604.636 59.834 594.026 58.8767C566.458 56.3895 538.881 56.0059 511.304 59.0995C490.604 61.4015 470.042 65.7555 449.768 72.1296C412.094 84.0089 376.256 103.115 341.47 126.725C307.936 149.494 275.854 176.012 244.121 203.446C234.074 212.132 224.041 220.852 214.008 229.573L214.007 229.574C189.694 250.707 165.38 271.841 140.867 292.479C101.654 325.493 61.041 354.61 18.4801 377.997C14.3981 380.241 10.2534 382.267 6.10913 384.292L6.10868 384.293L6.10811 384.293L6.10744 384.293L6.10673 384.294L6.10588 384.294ZM845.338 0.940308C844.33 1.91376 843.265 2.76244 842.155 3.47704C817.185 15.9971 791.249 24.2064 764.904 27.9286C741.805 31.0356 718.569 31.4908 695.419 29.2898C679.473 27.8744 663.545 26.1594 647.615 24.4444L647.614 24.4443C640.425 23.6703 633.237 22.8963 626.046 22.1498C597.226 19.1553 568.388 17.2867 539.481 19.3161C488.667 22.8675 439.967 39.4244 393.031 67.0561C360.506 86.2115 329.329 109.191 299.013 134.583C279.892 150.57 260.864 166.798 241.838 183.025L241.835 183.027L241.834 183.028L241.832 183.03L241.831 183.031L241.829 183.032L241.828 183.034C227.429 195.314 213.031 207.593 198.594 219.767C160.277 252.114 121.117 282.158 79.9212 306.536C55.2522 321.179 29.9588 333.594 4.19173 343.708C2.81892 344.142 1.43148 344.477 0.0347861 344.71V305.892C1.43724 305.94 2.83991 305.812 4.22652 305.509C8.53329 304.034 12.8481 302.596 17.1634 301.158C28.3498 297.431 39.5388 293.702 50.5965 289.335C93.366 272.42 134.083 247.993 173.487 219.161C207.036 194.624 239.461 167.175 271.877 139.734L273.556 138.312L275.463 136.699C309.075 108.25 342.504 80.1358 377.604 55.9564C409.929 33.6827 443.202 14.9975 478.214 3.05631C479.386 2.4958 480.521 1.78766 481.606 0.940308H845.338ZM1280.08 1130.12C1237.91 1199.2 1195.74 1268.28 1153.58 1337.36H1280.8V1129.61C1280.77 1129.63 1280.74 1129.65 1280.72 1129.66C1280.67 1129.69 1280.61 1129.72 1280.56 1129.75C1280.37 1129.84 1280.19 1129.94 1280.08 1130.12ZM358.645 0.940308C357.898 2.03432 357.066 3.00559 356.167 3.83589C321.502 28.832 286.055 51.0933 248.704 66.7963C223.348 77.4713 197.421 85.1773 171.183 89.8372C136.303 95.8106 101.152 97.9453 66.0415 96.2223C50.1234 95.5498 34.233 94.6558 18.3393 93.7617L18.3387 93.7616L18.3381 93.7616L18.3376 93.7616L18.3257 93.7609L18.3136 93.7602C14.3314 93.5362 10.349 93.3122 6.36587 93.0916C4.93485 93.0165 3.51175 92.7332 2.09122 92.4504L2.09078 92.4503C1.40505 92.3138 0.719917 92.1774 0.0347861 92.0646V54.3972C1.99528 54.6073 3.95491 54.8309 5.91449 55.0544C10.1874 55.5419 14.4601 56.0293 18.741 56.3771C23.8493 56.7961 28.9576 57.2247 34.0661 57.6534L34.0678 57.6535L34.0693 57.6537L34.07 57.6537L34.0701 57.6537L34.0704 57.6538C50.5375 59.0356 67.0071 60.4176 83.4868 61.4753C111.768 63.3191 140.066 63.6285 168.356 61.4753C225.708 57.2891 282.094 38.7623 334.93 6.74385C336.857 5.57839 338.728 4.21976 340.6 2.86045L340.6 2.86039L340.6 2.86007L340.602 2.85867L340.602 2.85847L340.602 2.85844C341.492 2.2123 342.382 1.56604 343.278 0.940308H358.645ZM60.2844 213.394C40.294 217.519 20.2108 220.407 0.0347861 222.056V262.149C2.0868 261.769 4.13972 261.402 6.19267 261.036C10.4824 260.271 14.7722 259.506 19.0541 258.61C52.9652 251.601 86.3741 240.338 118.89 224.952C160.338 205.326 199.69 179.192 237.737 148.999C258.891 132.218 279.86 114.975 300.832 97.7306C309.769 90.3815 318.707 83.0322 327.659 75.7181C359.845 49.4228 392.37 24.0555 426.565 3.31617C427.581 2.60908 428.565 1.81569 429.513 0.940308H404.754C403.746 2.21171 402.67 3.37011 401.537 4.40511C396.318 8.43525 391.086 12.4344 385.852 16.4349L385.85 16.436L385.845 16.4398C376.296 23.7383 366.74 31.0414 357.254 38.5458C345.112 48.1746 333.003 57.9019 320.893 67.6308L320.892 67.6315L320.888 67.6348L320.886 67.6363L320.886 67.6367C300.315 84.162 279.738 100.692 258.983 116.751C225.918 142.525 191.319 164.098 155.59 181.221C124.548 195.913 92.656 206.679 60.2844 213.394ZM307.892 3.26667C309.193 2.62 310.46 1.84258 311.684 0.940308H0.0347861V14.3045C0.66052 14.4188 1.28537 14.5493 1.9099 14.6798C3.24702 14.9592 4.58266 15.2383 5.92234 15.3564C22.2486 16.7753 38.5749 18.1901 54.9012 19.6007C63.2551 20.318 71.609 21.0633 79.9639 21.8086C98.8499 23.4934 117.741 25.1786 136.649 26.5427C166.772 28.8037 196.97 28.018 227.014 24.1916C254.36 20.6792 281.428 13.676 307.892 3.26667Z" fill="#F5F7FF"/>
<mask id="mask1" mask-type="alpha" maskUnits="userSpaceOnUse" x="0" y="0" width="1281" height="1338">
<path fill-rule="evenodd" clip-rule="evenodd" d="M386.822 0.940308C386.08 1.84035 385.295 2.66723 384.474 3.41517C374.884 10.9093 365.312 18.4509 355.74 25.9921L355.739 25.9933C332.848 44.0281 309.96 62.0616 286.829 79.4428C249.043 107.829 209.708 131.13 168.408 147.328C141.114 157.929 113.287 165.525 85.1739 170.047C57.7276 174.564 30.177 176.098 2.55678 176.927C1.93666 176.927 1.31653 176.984 0.715329 177.039L0.714546 177.039L0.713613 177.039C0.472282 177.061 0.234003 177.083 0 177.101V137.057C3.08217 137.088 6.16328 137.107 9.24407 137.127H9.24584H9.24792C14.9715 137.164 20.6939 137.2 26.4201 137.305C60.2757 137.924 94.0618 136.439 127.709 130.734C177.73 122.118 226.601 103.163 272.776 74.4683C306.692 53.5682 339.304 28.8072 371.664 3.43991C372.478 2.68524 373.254 1.84997 373.986 0.940308H386.822ZM1280.8 28.8815C1279.43 28.8354 1278.07 28.8107 1276.7 28.7861C1273.67 28.7314 1270.63 28.6767 1267.61 28.3865C1260.75 27.7259 1253.9 26.9859 1247.04 26.2456L1247.04 26.2452C1234.76 24.9193 1222.46 23.5925 1210.15 22.7191C1174.91 20.2442 1141.11 29.76 1108.55 48.8659C1081.87 64.507 1057.05 84.9865 1033 107.483C1004.68 133.99 977.649 163.05 950.622 192.11C948.024 194.903 945.426 197.697 942.826 200.488C912.954 232.562 883.02 264.5 851.513 293.295C820.284 321.756 787.75 346.505 752.833 364.683C723.514 379.728 693.142 390.241 662.241 396.039C632.325 401.867 602.235 404.194 572.076 405.864C566.157 406.192 560.238 406.511 554.318 406.829C534.082 407.919 513.841 409.009 493.615 410.455C439.219 414.328 385.413 424.067 332.625 443.866C276.88 464.593 223.997 495.516 173.096 533.53C125.535 569.044 80.2777 609.916 35.8558 652.731C30.556 657.847 25.2735 663.004 19.9911 668.16C14.7072 673.318 9.4234 678.475 4.12216 683.593C2.81973 684.632 1.45119 685.494 0.0347861 686.167V635.135C1.45163 634.428 2.82223 633.546 4.13086 632.499C11.5182 625.357 18.8896 618.18 26.2611 611.003C37.7903 599.779 49.3197 588.554 60.9105 577.458C105.532 534.718 150.954 493.87 198.838 458.814C237.476 430.526 277.367 406.594 318.963 388.478C377.012 363.185 436.601 351.591 497.094 348.658C517.125 347.692 537.167 347.254 557.208 346.817C568.742 346.565 580.276 346.313 591.808 345.96C622.394 345.02 652.919 342.867 683.226 336.358C713.346 330.004 742.857 318.769 771.183 302.873C803.977 284.312 834.563 259.947 864.088 232.686C891.377 207.477 917.589 180.098 943.8 152.72L943.865 152.653L943.889 152.628L943.892 152.624L943.896 152.62L943.9 152.616L943.903 152.613L943.907 152.609L943.911 152.605L943.914 152.601C947.36 149.002 950.806 145.403 954.254 141.809C981.683 113.212 1009.19 84.7885 1038.24 59.5697C1065.02 36.3184 1092.76 15.9627 1122.95 2.99444C1123.81 2.44822 1124.62 1.75869 1125.37 0.940308H1280.77L1280.8 28.8815ZM1275.07 104.925L1275.07 104.924C1270.74 104.551 1266.41 104.177 1262.09 103.696C1248.05 101.942 1233.96 101.367 1219.88 101.976C1189.78 103.708 1161.21 114.35 1133.79 131.674C1106.36 148.998 1080.74 171.594 1056.12 196.021C1026.01 225.909 997.398 258.556 968.773 291.216L968.394 291.649C966.576 293.724 964.757 295.799 962.939 297.875L962.777 298.059L962.777 298.06L962.777 298.06L962.776 298.061L962.776 298.061L962.776 298.061L962.775 298.062L962.775 298.062L962.774 298.062L962.774 298.063L962.774 298.063L962.773 298.063C932.798 332.278 902.827 366.487 871.463 398.142C843.347 426.516 814.239 452.589 783.306 474.331C745.489 500.794 705.403 520.109 664.068 531.784C636.722 539.539 609.119 545.325 581.364 549.121C567.416 551.084 553.481 552.973 539.553 554.861L539.543 554.862L539.515 554.866L539.507 554.867L539.5 554.868L539.492 554.869L539.485 554.87L539.477 554.871L539.47 554.872L539.462 554.874L539.455 554.875L539.447 554.876L539.44 554.877C521.273 557.339 503.116 559.8 484.954 562.423C431.844 570.095 379.178 581.566 327.407 600.61C267.288 622.686 209.708 654.302 154.19 693.789C104.237 729.315 56.5623 770.361 10.0793 814.29C7.79454 816.454 5.46823 818.547 3.14346 820.639L3.13903 820.643L3.13106 820.651L3.12554 820.656L3.1215 820.659L3.11871 820.662L3.11678 820.663C2.08787 821.589 1.05929 822.515 0.0347861 823.446V752.987C1.43276 752.063 2.79696 751.039 4.12216 749.918C9.04404 745.241 13.9506 740.544 18.858 735.847L18.8653 735.84C26.2249 728.795 33.5864 721.748 41.0042 714.763C84.2868 674.237 128.752 636.582 175.235 603.852C250.391 550.928 329.294 515.116 412.346 498.114C447.132 490.987 482.153 486.804 517.209 483.401C528.162 482.322 539.118 481.283 550.074 480.243L550.091 480.242L550.095 480.241C564.256 478.898 578.417 477.555 592.573 476.125C618.26 473.611 643.83 469.108 669.172 462.637C706.168 453.211 742.186 437.218 776.383 415.033C809.082 393.7 839.668 367.219 869.184 338.115C898.103 309.598 925.848 278.845 953.592 248.094C956.041 245.378 958.491 242.663 960.941 239.949C989.336 208.469 1017.76 177.026 1047.71 148.54C1072.93 124.547 1099.09 102.892 1127.38 86.8299C1160.11 68.0931 1195.4 60.1439 1230.59 63.5786C1241.96 64.6451 1253.32 65.9169 1264.67 67.1888C1270.05 67.791 1275.43 68.3932 1280.81 68.9738L1280.8 105.428C1278.89 105.254 1276.98 105.09 1275.07 104.925ZM1275.72 193.275C1277.41 193.147 1279.11 193.02 1280.8 192.902L1280.84 150.372C1279.52 150.219 1278.21 150.049 1276.89 149.878C1274.25 149.537 1271.62 149.196 1268.97 148.998C1251.78 147.523 1234.52 148.593 1217.48 152.191C1193.24 157.586 1170.37 168.933 1148.36 184.067C1119.26 204.064 1092.54 229.345 1066.61 256.568C1037.22 287.384 1009.12 320.53 981.028 353.68L979.655 355.3L977.586 357.74L975.875 359.76C944.477 396.805 913.069 433.861 880.185 468.28C850.461 499.376 819.657 528.023 786.871 552.239C746.372 582.173 703.75 603.642 659.311 618.058C630.038 627.562 600.444 634.479 570.693 640.171C559.204 642.365 547.715 644.519 536.228 646.673C511.753 651.263 487.288 655.851 462.856 660.811C396.44 674.299 331.051 694.321 267.41 725.034C208.795 753.297 152.659 789.492 98.4535 831.873C66.5285 856.832 35.3862 883.66 4.82658 911.861C3.47078 913.136 2.02728 914.248 0.608976 915.341H0.608894L0.608694 915.341L0.608257 915.341L0.597189 915.35C0.409186 915.495 0.22163 915.639 0.0347861 915.784V1014.2C1.59654 1013.43 3.11425 1012.49 4.57438 1011.39C37.8821 981.359 71.9638 953.241 106.82 927.032C198.21 858.175 295.77 807.365 396.806 776.004C441.359 762.177 486.292 751.368 531.22 740.56L531.471 740.5C535.956 739.421 540.441 738.342 544.925 737.26C578.302 729.179 611.584 720.517 644.544 709.38C710.881 686.958 772.983 650.417 830.45 598.012C866.819 564.861 901.153 527.8 934.269 488.462C953.686 465.409 972.962 442.115 992.239 418.82C1005.39 402.927 1018.54 387.034 1031.74 371.216C1060.73 336.506 1090.15 302.699 1121.6 272.58C1143.83 251.297 1166.89 232.117 1191.78 217.7C1215.69 203.817 1240.44 195.266 1266.33 193.917C1269.46 193.748 1272.59 193.512 1275.72 193.275ZM1280.8 315.606C1266.96 321.36 1253.84 329.738 1241.08 339.043C1212.33 359.968 1186.03 386.201 1160.61 414.316C1129.02 449.261 1099.13 487.027 1069.5 525.227C1058.33 539.62 1047.18 554.046 1036.04 568.472L1036.02 568.49L1036.01 568.508L1036 568.526L1035.98 568.544L1035.97 568.562L1035.92 568.624C1011.01 600.868 986.092 633.111 960.95 664.982C926.708 708.61 890.701 749.35 853.113 786.992C793.376 846.476 728.752 892.087 659.815 925.584C618.202 945.779 575.893 962.633 533.489 979.017C482.693 998.593 431.94 1018.27 381.691 1040.57C248.556 1099.63 123.117 1182.47 4.54829 1286.69C3.56959 1287.54 2.52615 1288.25 1.48422 1288.97C0.998512 1289.3 0.513133 1289.64 0.0347861 1289.98V1146.61C0.547643 1146.26 1.0682 1145.92 1.58895 1145.58H1.58903H1.58914H1.58928H1.58944H1.58962H1.58986L1.59017 1145.58L1.59057 1145.58L1.59105 1145.58L1.59167 1145.58L1.59246 1145.58L1.59297 1145.58L1.59337 1145.58L1.59368 1145.58H1.59392C2.73161 1144.84 3.87008 1144.09 4.93094 1143.16C59.3452 1095.46 115.377 1051.95 173.505 1014.17C243.538 968.709 315.884 932.724 390.257 904.734C435.653 887.633 481.521 873.392 527.383 859.153L527.753 859.038L528.109 858.928C531.022 858.023 533.934 857.119 536.846 856.214C574.345 844.57 611.767 832.48 648.666 817.347C698.706 796.83 746.867 769.829 792.446 733.758C832.093 702.389 869.071 665.452 904.631 625.483C941.325 584.218 976.326 540.102 1011.32 495.998L1013.02 493.845L1016.83 489.053L1016.83 489.05L1016.83 489.049C1046.23 451.987 1075.62 414.937 1106.29 380.002C1132.62 349.982 1159.72 321.496 1189.12 297.725C1211.09 279.956 1233.97 265.206 1258.69 256.816C1263.52 255.176 1268.44 254.08 1273.36 252.984C1275.87 252.425 1278.37 251.866 1280.87 251.235L1280.8 315.606ZM181.905 1337.36C185.036 1335.14 188.16 1332.9 191.285 1330.66C197.803 1325.99 204.321 1321.32 210.9 1316.81C286.69 1264.84 364.655 1220.43 444.019 1180.88C469.611 1168.13 495.257 1155.58 520.903 1143.04L520.929 1143.03L520.947 1143.02L520.965 1143.01L520.983 1143L521.001 1142.99L521.019 1142.98L521.037 1142.97L521.055 1142.96L521.074 1142.96L521.092 1142.95L521.11 1142.94L521.128 1142.93L521.146 1142.92L521.164 1142.91C540.061 1133.67 558.958 1124.42 577.833 1115.1C620.959 1093.8 663.668 1070.95 705.367 1044.41C773.635 1000.98 836.859 945.755 895.639 880.084C932.043 839.422 966.89 796.211 1000.64 751.218C1021 724.062 1041.25 696.73 1061.5 669.39L1061.51 669.377C1078.83 646.005 1096.15 622.627 1113.54 599.349C1146.17 555.63 1179.33 512.729 1214.71 473.477C1234.71 451.303 1255.33 430.464 1277.37 412.584C1278.12 411.977 1278.93 411.5 1279.73 411.022C1280.09 410.808 1280.45 410.594 1280.8 410.369V522.146C1277.54 525.825 1274.25 529.474 1270.97 533.123L1270.97 533.127L1270.96 533.132L1270.96 533.136L1270.94 533.154L1270.93 533.172C1263.92 540.955 1256.93 548.734 1250.11 556.794C1216.32 596.874 1184.42 639.912 1153.03 683.717C1134.86 709.07 1116.76 734.539 1098.67 760.007L1098.66 760.015L1098.64 760.044C1084.28 780.257 1069.92 800.471 1055.52 820.626C1016.67 875.011 977.143 928.282 935.687 978.732C883.751 1041.89 828.815 1098.97 769.678 1147.79C723.352 1186.04 675.347 1219.56 626.246 1249.75C595.09 1268.95 563.804 1287.73 532.518 1306.5L532.516 1306.5L532.513 1306.5L532.511 1306.5L532.509 1306.5L532.507 1306.51L532.505 1306.51L532.503 1306.51L532.5 1306.51L532.498 1306.51L532.496 1306.51L532.494 1306.51L532.492 1306.52L532.489 1306.52C517.265 1315.65 502.041 1324.79 486.832 1333.97C485.343 1335 483.892 1336.13 482.484 1337.36H181.905ZM791.254 1326.18C787.365 1329.9 783.475 1333.62 779.592 1337.36H967.438C968.196 1335.94 969.012 1334.59 969.881 1333.31C1014.91 1273.16 1058.46 1210.94 1100.53 1146.65C1133.78 1095.86 1166.83 1044.81 1199.89 993.758L1199.9 993.734L1199.92 993.709C1216.29 968.421 1232.66 943.133 1249.06 917.875C1256.14 906.969 1263.29 896.141 1270.45 885.312C1273.9 880.083 1277.35 874.854 1280.8 869.616V683.729C1280.76 683.751 1280.72 683.769 1280.67 683.786C1280.57 683.828 1280.47 683.868 1280.41 683.964C1272.74 694.743 1265.05 705.478 1257.36 716.213L1257.35 716.222L1257.34 716.232L1257.34 716.241L1257.33 716.251L1257.32 716.26L1257.32 716.27L1257.31 716.279L1257.3 716.289L1257.3 716.298L1257.29 716.308L1257.29 716.311L1257.29 716.314L1257.28 716.317L1257.28 716.32L1257.28 716.323L1257.28 716.327L1257.27 716.33L1257.27 716.333L1257.27 716.336L1257.27 716.339C1239.81 740.698 1222.35 765.059 1205.24 789.938C1181.33 824.686 1157.62 859.691 1133.89 894.701L1133.87 894.741L1133.84 894.781L1133.83 894.798C1117.19 919.35 1100.56 943.904 1083.85 968.375C1039.72 1032.96 994.571 1096.07 947.044 1155.68C905.388 1207.92 862.001 1257.02 816.318 1301.96C808.009 1310.13 799.632 1318.15 791.254 1326.18ZM1055.94 3.10581C1056.65 2.46799 1057.32 1.74341 1057.94 0.940308L1016.1 1.01455C1015.66 1.94268 1015.13 2.77607 1014.52 3.48941C990.264 24.8267 966.814 47.8827 943.364 70.9383C932.638 81.4836 921.913 92.0288 911.11 102.409C886.212 126.317 860.992 149.432 834.407 169.478C801.951 193.979 768.078 213.036 732.031 223.851C710.436 230.205 688.522 234.128 666.494 235.582C636.507 237.735 606.557 236.639 576.576 235.542L576.575 235.542C565.726 235.145 554.873 234.748 544.012 234.505C510.269 233.75 476.57 235.099 443.019 240.568C388.213 249.49 335.678 270.366 285.107 301.549C243.66 327.114 204.082 357.827 165.965 392.215C140.291 415.379 114.854 439.088 89.42 462.795L89.4188 462.796C77.4888 473.916 65.5591 485.035 53.6055 496.098C37.1632 511.359 20.692 526.559 4.19173 541.697C2.8647 542.666 1.47191 543.442 0.0347861 544.011V585.316C1.55914 584.305 3.04537 583.182 4.48741 581.95C16.4582 570.599 28.411 559.206 40.3643 547.812L40.3648 547.812L40.3653 547.811L40.3657 547.811L40.3718 547.805L40.3845 547.793L40.4017 547.777L40.4255 547.754L40.4297 547.75C66.6203 522.786 92.8136 497.82 119.203 473.279C158.842 436.28 199.742 402.437 242.494 373.171C314.858 323.637 390.944 294.273 471.213 288.086C493.65 286.353 516.131 285.772 538.603 285.462C553.659 285.252 568.714 285.358 583.77 285.464C596.169 285.551 608.568 285.638 620.968 285.549C645.428 285.432 669.856 282.988 694.088 278.236C734.425 270.111 773.591 252.875 810.109 227.179C836.396 208.746 861.703 187.608 885.829 163.934C906.517 143.77 927.025 123.252 947.543 102.724C955.532 94.7316 963.522 86.7377 971.525 78.7622C998.815 51.6378 1026.45 25.2805 1055.94 3.10581ZM978.534 0.940308C977.91 1.98136 977.217 2.93446 976.465 3.78639C968.73 11.0425 961.004 18.322 953.278 25.6021C933.491 44.2453 913.701 62.8929 893.743 81.1628C867.053 105.614 839.372 127.616 810.082 145.286C779.177 164.057 746.556 176.489 713.194 182.211C686.139 186.815 658.997 187.458 631.812 186.443C618.65 185.953 605.492 185.204 592.335 184.455L592.333 184.455C566.971 183.012 541.609 181.569 516.209 181.976C460.221 182.867 405.433 194.152 352.201 219.495C316.502 236.497 282.359 258.511 249.199 283.767C211.422 312.537 175.279 345.156 139.24 378.059C100.935 413.045 62.5571 447.854 24.1068 482.486C18.458 487.624 12.6102 492.391 6.73168 497.183L6.73068 497.184C5.65893 498.058 4.58617 498.932 3.5134 499.81C2.39688 500.537 1.23136 501.101 0.0347861 501.493V465.038C1.38042 464.484 2.69448 463.785 3.96562 462.947C8.64433 459.287 13.3336 455.65 18.0235 452.013L18.0299 452.008L18.0373 452.002L18.0392 452.001L18.0406 452L18.0417 451.999C30.327 442.472 42.6159 432.942 54.7273 422.978C85.5327 397.657 115.473 370.353 145.415 343.047L145.429 343.035L145.442 343.023L145.456 343.011L145.459 343.007C151.909 337.125 158.358 331.244 164.817 325.382C201.273 292.293 237.955 259.724 276.315 231.176C312.841 204.015 350.523 181.023 390.24 164.937C435.462 146.623 481.614 138.951 528.515 138.654C555.736 138.522 582.896 140.563 610.061 142.604L610.085 142.606C613.599 142.87 617.114 143.134 620.628 143.393C647.64 145.348 674.634 146.672 701.671 144.494C721.986 142.948 742.174 138.991 762.025 132.665C794.368 122.208 824.893 104.711 854.304 83.0561C886.308 59.4707 916.554 31.7275 946.749 3.86064C947.468 3.0062 948.108 2.02486 948.653 0.940308H978.534ZM6.10588 384.294L6.10469 384.295C4.07881 385.285 2.05305 386.275 0.0347861 387.29V423.733C2.19274 422.936 4.31796 421.969 6.40065 420.837C45.7438 396.064 83.5215 366.947 120.151 335.083C140.057 317.764 159.861 300.239 179.662 282.716L179.663 282.715L179.663 282.715L179.664 282.714L179.664 282.714L179.665 282.713L179.665 282.713C195.488 268.711 211.309 254.71 227.18 240.816C261.479 210.784 296.465 182.558 333.112 158.601C390.779 120.971 451.02 98.4002 514.557 94.6879C539.029 93.3144 563.492 93.995 587.938 95.9254C598.757 96.7787 609.572 97.7125 620.387 98.6463L620.388 98.6465L620.39 98.6466L620.392 98.6468L620.393 98.6469L620.395 98.647L620.397 98.6472C633.572 99.7848 646.748 100.922 659.928 101.915C685.957 103.87 711.968 103.647 737.945 99.6253C766.667 95.1065 794.867 85.3841 821.858 70.6942C854.678 52.9123 885.342 29.0671 915.302 3.41517C915.955 2.70131 916.539 1.86934 917.041 0.940308H888.012C886.906 2.15099 885.744 3.25477 884.534 4.24424L884.058 4.57933L884.055 4.58137L884.055 4.58205L884.054 4.58231L884.054 4.5825C877.335 9.32036 870.623 14.0538 863.827 18.5984C818.188 49.2 770.252 66.0786 719.682 67.5387C698.21 68.1822 676.765 66.7468 655.328 64.7793C645.506 63.8809 635.683 62.9082 625.859 61.9354L625.856 61.9352C615.247 60.8847 604.636 59.834 594.026 58.8767C566.458 56.3895 538.881 56.0059 511.304 59.0995C490.604 61.4015 470.042 65.7555 449.768 72.1296C412.094 84.0089 376.256 103.115 341.47 126.725C307.936 149.494 275.854 176.012 244.121 203.446C234.074 212.132 224.041 220.852 214.008 229.573L214.007 229.574C189.694 250.707 165.38 271.841 140.867 292.479C101.654 325.493 61.041 354.61 18.4801 377.997C14.3981 380.241 10.2534 382.267 6.10913 384.292L6.10868 384.293L6.10811 384.293L6.10744 384.293L6.10673 384.294L6.10588 384.294ZM845.338 0.940308C844.33 1.91376 843.265 2.76244 842.155 3.47704C817.185 15.9971 791.249 24.2064 764.904 27.9286C741.805 31.0356 718.569 31.4908 695.419 29.2898C679.473 27.8744 663.545 26.1594 647.615 24.4444L647.614 24.4443C640.425 23.6703 633.237 22.8963 626.046 22.1498C597.226 19.1553 568.388 17.2867 539.481 19.3161C488.667 22.8675 439.967 39.4244 393.031 67.0561C360.506 86.2115 329.329 109.191 299.013 134.583C279.892 150.57 260.864 166.798 241.838 183.025L241.835 183.027L241.834 183.028L241.832 183.03L241.831 183.031L241.829 183.032L241.828 183.034C227.429 195.314 213.031 207.593 198.594 219.767C160.277 252.114 121.117 282.158 79.9212 306.536C55.2522 321.179 29.9588 333.594 4.19173 343.708C2.81892 344.142 1.43148 344.477 0.0347861 344.71V305.892C1.43724 305.94 2.83991 305.812 4.22652 305.509C8.53329 304.034 12.8481 302.596 17.1634 301.158C28.3498 297.431 39.5388 293.702 50.5965 289.335C93.366 272.42 134.083 247.993 173.487 219.161C207.036 194.624 239.461 167.175 271.877 139.734L273.556 138.312L275.463 136.699C309.075 108.25 342.504 80.1358 377.604 55.9564C409.929 33.6827 443.202 14.9975 478.214 3.05631C479.386 2.4958 480.521 1.78766 481.606 0.940308H845.338ZM1280.08 1130.12C1237.91 1199.2 1195.74 1268.28 1153.58 1337.36H1280.8V1129.61C1280.77 1129.63 1280.74 1129.65 1280.72 1129.66C1280.67 1129.69 1280.61 1129.72 1280.56 1129.75C1280.37 1129.84 1280.19 1129.94 1280.08 1130.12ZM358.645 0.940308C357.898 2.03432 357.066 3.00559 356.167 3.83589C321.502 28.832 286.055 51.0933 248.704 66.7963C223.348 77.4713 197.421 85.1773 171.183 89.8372C136.303 95.8106 101.152 97.9453 66.0415 96.2223C50.1234 95.5498 34.233 94.6558 18.3393 93.7617L18.3387 93.7616L18.3381 93.7616L18.3376 93.7616L18.3257 93.7609L18.3136 93.7602C14.3314 93.5362 10.349 93.3122 6.36587 93.0916C4.93485 93.0165 3.51175 92.7332 2.09122 92.4504L2.09078 92.4503C1.40505 92.3138 0.719917 92.1774 0.0347861 92.0646V54.3972C1.99528 54.6073 3.95491 54.8309 5.91449 55.0544C10.1874 55.5419 14.4601 56.0293 18.741 56.3771C23.8493 56.7961 28.9576 57.2247 34.0661 57.6534L34.0678 57.6535L34.0693 57.6537L34.07 57.6537L34.0701 57.6537L34.0704 57.6538C50.5375 59.0356 67.0071 60.4176 83.4868 61.4753C111.768 63.3191 140.066 63.6285 168.356 61.4753C225.708 57.2891 282.094 38.7623 334.93 6.74385C336.857 5.57839 338.728 4.21976 340.6 2.86045L340.6 2.86039L340.6 2.86007L340.602 2.85867L340.602 2.85847L340.602 2.85844C341.492 2.2123 342.382 1.56604 343.278 0.940308H358.645ZM60.2844 213.394C40.294 217.519 20.2108 220.407 0.0347861 222.056V262.149C2.0868 261.769 4.13972 261.402 6.19267 261.036C10.4824 260.271 14.7722 259.506 19.0541 258.61C52.9652 251.601 86.3741 240.338 118.89 224.952C160.338 205.326 199.69 179.192 237.737 148.999C258.891 132.218 279.86 114.975 300.832 97.7306C309.769 90.3815 318.707 83.0322 327.659 75.7181C359.845 49.4228 392.37 24.0555 426.565 3.31617C427.581 2.60908 428.565 1.81569 429.513 0.940308H404.754C403.746 2.21171 402.67 3.37011 401.537 4.40511C396.318 8.43525 391.086 12.4344 385.852 16.4349L385.85 16.436L385.845 16.4398C376.296 23.7383 366.74 31.0414 357.254 38.5458C345.112 48.1746 333.003 57.9019 320.893 67.6308L320.892 67.6315L320.888 67.6348L320.886 67.6363L320.886 67.6367C300.315 84.162 279.738 100.692 258.983 116.751C225.918 142.525 191.319 164.098 155.59 181.221C124.548 195.913 92.656 206.679 60.2844 213.394ZM307.892 3.26667C309.193 2.62 310.46 1.84258 311.684 0.940308H0.0347861V14.3045C0.66052 14.4188 1.28537 14.5493 1.9099 14.6798C3.24702 14.9592 4.58266 15.2383 5.92234 15.3564C22.2486 16.7753 38.5749 18.1901 54.9012 19.6007C63.2551 20.318 71.609 21.0633 79.9639 21.8086C98.8499 23.4934 117.741 25.1786 136.649 26.5427C166.772 28.8037 196.97 28.018 227.014 24.1916C254.36 20.6792 281.428 13.676 307.892 3.26667Z" fill="white"/>
</mask>
<g mask="url(#mask1)">
<rect x="0.034668" y="0.940308" width="1281" height="1336.42" fill="#F5F7FF"/>
</g>
</svg>
